<svg t="1707626979775" class="icon" viewBox="0 0 1024 1024" version="1.1" xmlns="http://www.w3.org/2000/svg" p-id="10073" width="300" height="300"><path d="M920.56 667.52a194.08 194.08 0 1 0 0 274 194.08 194.08 0 0 0 0-274z m-24 249.92a160 160 0 1 1 34.64-173.92 159.6 159.6 0 0 1-34.72 173.92z" fill="#e6e6e6" p-id="10074"></path><path d="M879.44 734a14.48 14.48 0 0 0-14.64 5.68l-104 102.96-53.44-54.56a14.48 14.48 0 0 0-25.76 5.44 14.56 14.56 0 0 0 5.6 14.64l63.52 63.04a16.8 16.8 0 0 0 22.88 0L884.96 760a14.4 14.4 0 0 0-5.52-25.76z" fill="#e6e6e6" p-id="10075"></path><path d="M784 578.88a224.56 224.56 0 0 1 119.04 34V231.04v-10.56-1.2c0-3.12-0.4-6.16-0.72-9.2v-2.16c0-2.72-0.56-5.44-1.04-8v-2.32c0-2.56-0.88-5.2-1.36-8 0-0.88 0-1.68-0.64-2.56-0.56-2.48-1.04-4.88-1.68-7.28a26.96 26.96 0 0 0-0.8-2.72c-0.64-2.32-1.28-4.72-2-7.04a24 24 0 0 0-0.88-2.56c-0.72-2.4-1.52-4.72-2.32-6.96l-0.96-2.48c-0.88-2.32-1.76-4.64-2.72-6.88 0-0.8-0.72-1.52-1.04-2.32l-3.04-6.72-1.12-2.24c-1.12-2.24-2.24-4.48-3.44-6.64l-1.12-2c-1.28-2.24-2.48-4.4-3.84-6.64l-1.12-1.76c-1.36-2.24-2.8-4.4-4.24-6.56a19.44 19.44 0 0 0-1.12-1.6l-4.56-6.4-1.2-1.6-4.88-6.24-1.2-1.36c-1.76-2-3.44-4.08-5.28-6.08l-1.12-1.2c-1.84-2-3.76-4-5.68-5.92l-1.2-1.12-5.92-5.68-1.2-1.04c-2-1.84-4.08-3.68-6.24-5.44l-2.64-0.56c-2.16-1.76-4.32-3.52-6.56-5.12l-1.28-0.96-6.72-4.8-1.44-0.96-6.88-4.4-1.52-0.88-7.04-4.08-1.68-1.2c-2.4-1.28-4.72-2.48-7.12-3.6l-1.92-0.96-7.12-3.2-2.16-0.88-7.28-2.8-2.32-0.8-7.12-2.48-2.56-0.72-6.96-2.16-2.8-0.64-7.12-1.68-3.12-0.48-7.2-1.28-3.04-0.4q-3.6-0.56-7.2-0.96h-3.12l-7.28-0.64H88a40 40 0 0 0-29.04 10.96 40.64 40.64 0 0 0-12.16 28.4v655.84c0 3.12 0 6.16 0.72 9.2v2.16c0 2.72 0.64 5.44 1.12 8v2.4c0 2.56 0.88 5.2 1.36 8 0 0.88 0 1.76 0.64 2.64 0.48 2.48 1.04 4.88 1.68 7.28l0.72 2.72c0.64 2.32 1.36 4.72 2.08 7.04a24 24 0 0 0 0.88 2.56c0.72 2.32 1.44 4.64 2.32 6.96l0.96 2.48c0.88 2.32 1.76 4.56 2.72 6.88 0 0.72 0.72 1.52 1.04 2.32 0.96 2.24 2 4.48 3.04 6.72a19.52 19.52 0 0 1 1.12 2.24c1.12 2.24 2.24 4.48 3.44 6.64a16 16 0 0 1 1.12 2c1.28 2.24 2.48 4.4 3.84 6.56 0 0.64 0.8 1.28 1.12 1.84 1.36 2.24 2.8 4.4 4.24 6.56a19.44 19.44 0 0 0 1.12 1.6c1.52 2.16 2.96 4.32 4.56 6.4l1.2 1.52c1.6 2.16 3.2 4.24 4.88 6.24l1.2 1.36c1.68 2.08 3.44 4.16 5.28 6.16l1.12 1.2c1.84 2 3.76 4 5.68 5.92l1.12 1.12 6 5.68 1.2 1.04c2 1.84 4.08 3.68 6.24 5.44l1.2 0.96 6.56 5.12 1.28 0.96c2.24 1.6 4.48 3.28 6.72 4.8l1.44 0.88 6.88 4.48 1.52 0.88 7.04 4.08 1.68 0.88c2.4 1.2 4.72 2.48 7.12 3.6l1.92 0.88 7.12 3.28 2.16 0.88 7.12 2.8 2.32 0.8 7.12 2.48 2.56 0.72c2.4 0.72 4.72 1.44 7.12 2l2.8 0.72 7.12 1.68 2.88 0.56 7.2 1.28h3.04c2.4 0 4.8 0.72 7.2 0.96h3.12c2.4 0 4.8 0.48 7.28 0.56h346.88A225.6 225.6 0 0 1 784 578.88zM248 300.56a34.64 34.64 0 0 1 32.56-16H672a34.72 34.72 0 0 1 0 69.28H280a34.8 34.8 0 0 1-32-53.28z m32 233.04a34.8 34.8 0 1 1 0-69.6h392a34.72 34.72 0 0 1 0 69.28z" fill="#e6e6e6" p-id="10076"></path></svg>
