<svg t="1707620819846" class="icon" viewBox="0 0 1041 1024" version="1.1" xmlns="http://www.w3.org/2000/svg" p-id="2708" width="300" height="300"><path d="M277.694915 327.714712c0-8.66061 3.644746-16.974102 10.170577-23.08339A35.84 35.84 0 0 1 312.40678 295.050847h214.224271c19.178305 0 34.711864 14.631051 34.711864 32.663865 0 18.050169-15.533559 32.68122-34.711864 32.68122H312.40678c-19.178305 0-34.711864-14.631051-34.711865-32.68122z m0 212.367186c0-18.050169 15.533559-32.68122 34.711865-32.68122h329.762712c19.178305 0 34.711864 14.631051 34.711864 32.68122S661.347797 572.745763 642.169492 572.745763H312.40678c-9.198644 0-18.050169-3.436475-24.541288-9.563119A31.726644 31.726644 0 0 1 277.694915 540.081898z" p-id="2709"></path><path d="M971.932203 698.541559V104.135593a34.711864 34.711864 0 0 0-34.711864-34.711864H104.135593a34.711864 34.711864 0 0 0-34.711864 34.711864v815.728814a34.711864 34.711864 0 0 0 34.711864 34.711864h584.686644L971.932203 698.541559zM728.949153 1012.041763l-12.600407 11.958237H104.135593a104.135593 104.135593 0 0 1-104.135593-104.135593V104.135593a104.135593 104.135593 0 0 1 104.135593-104.135593h833.084746a104.135593 104.135593 0 0 1 104.135593 104.135593v625.230102L728.949153 1011.885559v0.156204z" p-id="2710"></path><path d="M642.169492 989.288136V744.187661c0-27.057898 10.968949-53.005017 30.494372-72.131254A105.246373 105.246373 0 0 1 746.305085 642.169492h260.338983v68.017898H746.305085c-9.198644 0-18.050169 3.575322-24.541288 9.962305A33.670508 33.670508 0 0 0 711.59322 744.187661V989.288136h-69.423728z" p-id="2711"></path></svg>
