<svg t="1707623401388" class="icon" viewBox="0 0 1024 1024" version="1.1" xmlns="http://www.w3.org/2000/svg" p-id="6065" width="400" height="400"><path d="M757.76 1003.52H102.4a58.1632 58.1632 0 0 1-61.44-57.344V77.824A58.1632 58.1632 0 0 1 102.4 20.48h655.36a58.1632 58.1632 0 0 1 61.44 57.344v282.624a20.48 20.48 0 0 1-40.96 0V77.824c0-9.8304-8.192-16.384-20.48-16.384H102.4c-12.288 0-20.48 6.5536-20.48 16.384v868.352c0 9.8304 8.192 16.384 20.48 16.384h655.36c12.288 0 20.48-6.5536 20.48-16.384v-122.88a20.48 20.48 0 0 1 40.96 0v122.88a58.1632 58.1632 0 0 1-61.44 57.344z" fill="#e6e6e6" p-id="6066"></path><path d="M634.88 266.24H225.28a20.48 20.48 0 0 1 0-40.96h409.6a20.48 20.48 0 0 1 0 40.96zM557.056 512H225.28a20.48 20.48 0 0 1 0-40.96h331.776a20.48 20.48 0 0 1 0 40.96zM471.04 757.76H225.28a20.48 20.48 0 0 1 0-40.96h245.76a20.48 20.48 0 0 1 0 40.96zM704.512 778.24H634.88a20.48 20.48 0 0 1-20.48-20.48v-73.728a20.48 20.48 0 0 1 6.144-14.7456l282.624-274.432a20.48 20.48 0 0 1 28.672 0l65.536 65.536a20.48 20.48 0 0 1 0 28.672l-278.528 282.624a20.48 20.48 0 0 1-14.336 6.5536z m-49.152-40.96h40.96l258.048-262.144-36.864-36.864-262.144 254.3616z" fill="#e6e6e6" p-id="6067"></path></svg>
